%TF.GenerationSoftware,KiCad,Pcbnew,(6.0.7)*%
%TF.CreationDate,2022-08-10T20:47:25+10:00*%
%TF.ProjectId,Voodoo2SLI,566f6f64-6f6f-4325-934c-492e6b696361,rev?*%
%TF.SameCoordinates,Original*%
%TF.FileFunction,Soldermask,Top*%
%TF.FilePolarity,Negative*%
%FSLAX46Y46*%
G04 Gerber Fmt 4.6, Leading zero omitted, Abs format (unit mm)*
G04 Created by KiCad (PCBNEW (6.0.7)) date 2022-08-10 20:47:25*
%MOMM*%
%LPD*%
G01*
G04 APERTURE LIST*
%ADD10C,0.100000*%
%ADD11C,0.200000*%
%ADD12R,1.700000X1.700000*%
%ADD13O,1.700000X1.700000*%
G04 APERTURE END LIST*
%TO.C,REF\u002A\u002A*%
G36*
X139528000Y-101374000D02*
G01*
X140918000Y-101954000D01*
X141798000Y-102874000D01*
X142298000Y-104094000D01*
X142458000Y-105624000D01*
X142168000Y-107534000D01*
X141628000Y-109104000D01*
X140618000Y-111154000D01*
X139638000Y-113154000D01*
X138198000Y-113164000D01*
X139588000Y-110294000D01*
X140368000Y-108744000D01*
X140948000Y-107164000D01*
X141128000Y-105694000D01*
X140948000Y-104194000D01*
X140318000Y-102984000D01*
X139348000Y-102244000D01*
X138418000Y-101884000D01*
X137238000Y-101784000D01*
X135598000Y-101964000D01*
X133578000Y-102664000D01*
X131418000Y-103834000D01*
X132438000Y-103014000D01*
X134528000Y-102024000D01*
X136508000Y-101414000D01*
X138188000Y-101244000D01*
X139528000Y-101374000D01*
G37*
D10*
X139528000Y-101374000D02*
X140918000Y-101954000D01*
X141798000Y-102874000D01*
X142298000Y-104094000D01*
X142458000Y-105624000D01*
X142168000Y-107534000D01*
X141628000Y-109104000D01*
X140618000Y-111154000D01*
X139638000Y-113154000D01*
X138198000Y-113164000D01*
X139588000Y-110294000D01*
X140368000Y-108744000D01*
X140948000Y-107164000D01*
X141128000Y-105694000D01*
X140948000Y-104194000D01*
X140318000Y-102984000D01*
X139348000Y-102244000D01*
X138418000Y-101884000D01*
X137238000Y-101784000D01*
X135598000Y-101964000D01*
X133578000Y-102664000D01*
X131418000Y-103834000D01*
X132438000Y-103014000D01*
X134528000Y-102024000D01*
X136508000Y-101414000D01*
X138188000Y-101244000D01*
X139528000Y-101374000D01*
D11*
X140517814Y-108406988D02*
X140410088Y-108634748D01*
X140305155Y-108851105D01*
X140177847Y-109110951D01*
X140031696Y-109407322D01*
X139870233Y-109733254D01*
X139696988Y-110081783D01*
X139607052Y-110262346D01*
X139515494Y-110445946D01*
X139422756Y-110631714D01*
X139329279Y-110818779D01*
X139235506Y-111006270D01*
X139141877Y-111193318D01*
X139048833Y-111379051D01*
X138956816Y-111562599D01*
X138866268Y-111743091D01*
X138691341Y-112091428D01*
X138527585Y-112417097D01*
X138378529Y-112713135D01*
X138247704Y-112972578D01*
X138138643Y-113188462D01*
X139670003Y-113188462D02*
X141440979Y-109494215D01*
X140615854Y-103486123D02*
X140746465Y-103753999D01*
X140855393Y-104036747D01*
X140943378Y-104332314D01*
X141011160Y-104638646D01*
X141059478Y-104953690D01*
X141089070Y-105275393D01*
X141100678Y-105601703D01*
X141095039Y-105930565D01*
X141072894Y-106259926D01*
X141034983Y-106587735D01*
X140982043Y-106911936D01*
X140914816Y-107230478D01*
X140834039Y-107541308D01*
X140740454Y-107842371D01*
X140634799Y-108131615D01*
X140517814Y-108406988D01*
X141440979Y-109494215D02*
X141529393Y-109305151D01*
X141614790Y-109113033D01*
X141696991Y-108918088D01*
X141775818Y-108720545D01*
X141851094Y-108520631D01*
X141922641Y-108318576D01*
X141990282Y-108114608D01*
X142053838Y-107908954D01*
X142113132Y-107701843D01*
X142167987Y-107493503D01*
X142218224Y-107284164D01*
X142263667Y-107074052D01*
X142304137Y-106863396D01*
X142339456Y-106652425D01*
X142369448Y-106441367D01*
X142393934Y-106230449D01*
X142412736Y-106019902D01*
X142425678Y-105809951D01*
X142432581Y-105600827D01*
X142433268Y-105392757D01*
X142427561Y-105185970D01*
X142415282Y-104980694D01*
X142396253Y-104777156D01*
X142370298Y-104575586D01*
X142337238Y-104376212D01*
X142296896Y-104179262D01*
X142249093Y-103984964D01*
X142130398Y-103605238D01*
X141979730Y-103238862D01*
X141891963Y-103061250D01*
X141891963Y-103061250D02*
X141747386Y-102815848D01*
X141582298Y-102590067D01*
X141398380Y-102383455D01*
X141197313Y-102195557D01*
X140980780Y-102025921D01*
X140750463Y-101874094D01*
X140508043Y-101739622D01*
X140255203Y-101622053D01*
X139993624Y-101520933D01*
X139724988Y-101435810D01*
X139450978Y-101366230D01*
X139173274Y-101311740D01*
X138893559Y-101271887D01*
X138613516Y-101246219D01*
X138334825Y-101234281D01*
X138059169Y-101235621D01*
X138059169Y-101235621D02*
X137697616Y-101253610D01*
X137338340Y-101286410D01*
X136981415Y-101333456D01*
X136626916Y-101394184D01*
X136274919Y-101468028D01*
X135925497Y-101554424D01*
X135578727Y-101652809D01*
X135234683Y-101762617D01*
X134893439Y-101883284D01*
X134555072Y-102014245D01*
X134219655Y-102154937D01*
X133887264Y-102304795D01*
X133557973Y-102463253D01*
X133231857Y-102629749D01*
X132908992Y-102803717D01*
X132589453Y-102984593D01*
X132273313Y-103171812D01*
X131960649Y-103364810D01*
X131651534Y-103563022D01*
X131346045Y-103765885D01*
X131044255Y-103972833D01*
X130746240Y-104183303D01*
X130452075Y-104396729D01*
X130161834Y-104612547D01*
X129875593Y-104830193D01*
X129593426Y-105049103D01*
X129315409Y-105268711D01*
X129041616Y-105488454D01*
X128772122Y-105707766D01*
X128507002Y-105926084D01*
X128246331Y-106142844D01*
X127990185Y-106357480D01*
X128023692Y-106459094D02*
X128258853Y-106257038D01*
X128498444Y-106054097D01*
X128742352Y-105850719D01*
X128990463Y-105647354D01*
X129242665Y-105444449D01*
X129498845Y-105242455D01*
X129758889Y-105041819D01*
X130022683Y-104842991D01*
X130290116Y-104646419D01*
X130561074Y-104452552D01*
X130835444Y-104261840D01*
X131113112Y-104074731D01*
X131393966Y-103891674D01*
X131677892Y-103713118D01*
X131964778Y-103539512D01*
X132254510Y-103371304D01*
X132546975Y-103208944D01*
X132842060Y-103052880D01*
X133139651Y-102903562D01*
X133439637Y-102761437D01*
X133741903Y-102626956D01*
X134046336Y-102500566D01*
X134352824Y-102382717D01*
X134661254Y-102273858D01*
X134971511Y-102174437D01*
X135283483Y-102084904D01*
X135597058Y-102005706D01*
X135912121Y-101937294D01*
X136228559Y-101880116D01*
X136546261Y-101834621D01*
X136865111Y-101801257D01*
X137184999Y-101780475D01*
X138138643Y-113188462D02*
X139670003Y-113188462D01*
X137184999Y-101780475D02*
X137432223Y-101775720D01*
X137680572Y-101783802D01*
X137928868Y-101805152D01*
X138175932Y-101840200D01*
X138420587Y-101889378D01*
X138661654Y-101953116D01*
X138897955Y-102031846D01*
X139128314Y-102125997D01*
X139351550Y-102236002D01*
X139566487Y-102362291D01*
X139771947Y-102505296D01*
X139966751Y-102665445D01*
X140149722Y-102843172D01*
X140319681Y-103038907D01*
X140475451Y-103253080D01*
X140615854Y-103486123D01*
%TD*%
D12*
%TO.C,J1*%
X167894000Y-96266000D03*
D13*
X167894000Y-98806000D03*
X165354000Y-96266000D03*
X165354000Y-98806000D03*
X162814000Y-96266000D03*
X162814000Y-98806000D03*
X160274000Y-96266000D03*
X160274000Y-98806000D03*
X157734000Y-96266000D03*
X157734000Y-98806000D03*
X155194000Y-96266000D03*
X155194000Y-98806000D03*
X152654000Y-96266000D03*
X152654000Y-98806000D03*
X150114000Y-96266000D03*
X150114000Y-98806000D03*
X147574000Y-96266000D03*
X147574000Y-98806000D03*
X145034000Y-96266000D03*
X145034000Y-98806000D03*
X142494000Y-96266000D03*
X142494000Y-98806000D03*
X139954000Y-96266000D03*
X139954000Y-98806000D03*
X137414000Y-96266000D03*
X137414000Y-98806000D03*
X134874000Y-96266000D03*
X134874000Y-98806000D03*
X132334000Y-96266000D03*
X132334000Y-98806000D03*
X129794000Y-96266000D03*
X129794000Y-98806000D03*
X127254000Y-96266000D03*
X127254000Y-98806000D03*
%TD*%
D12*
%TO.C,J2*%
X167894000Y-116586000D03*
D13*
X167894000Y-119126000D03*
X165354000Y-116586000D03*
X165354000Y-119126000D03*
X162814000Y-116586000D03*
X162814000Y-119126000D03*
X160274000Y-116586000D03*
X160274000Y-119126000D03*
X157734000Y-116586000D03*
X157734000Y-119126000D03*
X155194000Y-116586000D03*
X155194000Y-119126000D03*
X152654000Y-116586000D03*
X152654000Y-119126000D03*
X150114000Y-116586000D03*
X150114000Y-119126000D03*
X147574000Y-116586000D03*
X147574000Y-119126000D03*
X145034000Y-116586000D03*
X145034000Y-119126000D03*
X142494000Y-116586000D03*
X142494000Y-119126000D03*
X139954000Y-116586000D03*
X139954000Y-119126000D03*
X137414000Y-116586000D03*
X137414000Y-119126000D03*
X134874000Y-116586000D03*
X134874000Y-119126000D03*
X132334000Y-116586000D03*
X132334000Y-119126000D03*
X129794000Y-116586000D03*
X129794000Y-119126000D03*
X127254000Y-116586000D03*
X127254000Y-119126000D03*
%TD*%
M02*
