%TF.GenerationSoftware,KiCad,Pcbnew,(6.0.7)*%
%TF.CreationDate,2022-08-10T20:47:30+10:00*%
%TF.ProjectId,Voodoo2SLI,566f6f64-6f6f-4325-934c-492e6b696361,rev?*%
%TF.SameCoordinates,Original*%
%TF.FileFunction,Drillmap*%
%TF.FilePolarity,Positive*%
%FSLAX45Y45*%
G04 Gerber Fmt 4.5, Leading zero omitted, Abs format (unit mm)*
G04 Created by KiCad (PCBNEW (6.0.7)) date 2022-08-10 20:47:30*
%MOMM*%
%LPD*%
G01*
G04 APERTURE LIST*
%ADD10C,0.050000*%
%ADD11C,0.200000*%
G04 APERTURE END LIST*
D10*
X17043400Y-12166600D02*
X17043400Y-9372600D01*
X17043400Y-9372600D02*
X12471400Y-9372600D01*
X12471400Y-9372600D02*
X12471400Y-12166600D01*
X12471400Y-12166600D02*
X17043400Y-12166600D01*
D11*
X12726519Y-12479576D02*
X12726519Y-12279576D01*
X12774138Y-12279576D01*
X12802709Y-12289100D01*
X12821757Y-12308148D01*
X12831281Y-12327195D01*
X12840805Y-12365290D01*
X12840805Y-12393862D01*
X12831281Y-12431957D01*
X12821757Y-12451005D01*
X12802709Y-12470052D01*
X12774138Y-12479576D01*
X12726519Y-12479576D01*
X12926519Y-12479576D02*
X12926519Y-12346243D01*
X12926519Y-12384338D02*
X12936043Y-12365290D01*
X12945567Y-12355767D01*
X12964614Y-12346243D01*
X12983662Y-12346243D01*
X13050328Y-12479576D02*
X13050328Y-12346243D01*
X13050328Y-12279576D02*
X13040805Y-12289100D01*
X13050328Y-12298624D01*
X13059852Y-12289100D01*
X13050328Y-12279576D01*
X13050328Y-12298624D01*
X13174138Y-12479576D02*
X13155090Y-12470052D01*
X13145567Y-12451005D01*
X13145567Y-12279576D01*
X13278900Y-12479576D02*
X13259852Y-12470052D01*
X13250328Y-12451005D01*
X13250328Y-12279576D01*
X13507471Y-12479576D02*
X13507471Y-12279576D01*
X13574138Y-12422433D01*
X13640805Y-12279576D01*
X13640805Y-12479576D01*
X13821757Y-12479576D02*
X13821757Y-12374814D01*
X13812233Y-12355767D01*
X13793186Y-12346243D01*
X13755090Y-12346243D01*
X13736043Y-12355767D01*
X13821757Y-12470052D02*
X13802709Y-12479576D01*
X13755090Y-12479576D01*
X13736043Y-12470052D01*
X13726519Y-12451005D01*
X13726519Y-12431957D01*
X13736043Y-12412909D01*
X13755090Y-12403386D01*
X13802709Y-12403386D01*
X13821757Y-12393862D01*
X13916995Y-12346243D02*
X13916995Y-12546243D01*
X13916995Y-12355767D02*
X13936043Y-12346243D01*
X13974138Y-12346243D01*
X13993186Y-12355767D01*
X14002709Y-12365290D01*
X14012233Y-12384338D01*
X14012233Y-12441481D01*
X14002709Y-12460528D01*
X13993186Y-12470052D01*
X13974138Y-12479576D01*
X13936043Y-12479576D01*
X13916995Y-12470052D01*
X14097948Y-12460528D02*
X14107471Y-12470052D01*
X14097948Y-12479576D01*
X14088424Y-12470052D01*
X14097948Y-12460528D01*
X14097948Y-12479576D01*
X14097948Y-12355767D02*
X14107471Y-12365290D01*
X14097948Y-12374814D01*
X14088424Y-12365290D01*
X14097948Y-12355767D01*
X14097948Y-12374814D01*
M02*
