M48
; DRILL file {KiCad (6.0.7)} date Wed Aug 10 20:47:29 2022
; FORMAT={-:-/ absolute / inch / decimal}
; #@! TF.CreationDate,2022-08-10T20:47:29+10:00
; #@! TF.GenerationSoftware,Kicad,Pcbnew,(6.0.7)
; #@! TF.FileFunction,Plated,1,2,PTH
FMAT,2
INCH
; #@! TA.AperFunction,Plated,PTH,ViaDrill
T1C0.0157
; #@! TA.AperFunction,Plated,PTH,ComponentDrill
T2C0.0394
%
G90
G05
T1
X5.76Y-4.64
T2
X5.01Y-3.79
X5.01Y-3.89
X5.01Y-4.59
X5.01Y-4.69
X5.11Y-3.79
X5.11Y-3.89
X5.11Y-4.59
X5.11Y-4.69
X5.21Y-3.79
X5.21Y-3.89
X5.21Y-4.59
X5.21Y-4.69
X5.31Y-3.79
X5.31Y-3.89
X5.31Y-4.59
X5.31Y-4.69
X5.41Y-3.79
X5.41Y-3.89
X5.41Y-4.59
X5.41Y-4.69
X5.51Y-3.79
X5.51Y-3.89
X5.51Y-4.59
X5.51Y-4.69
X5.61Y-3.79
X5.61Y-3.89
X5.61Y-4.59
X5.61Y-4.69
X5.71Y-3.79
X5.71Y-3.89
X5.71Y-4.59
X5.71Y-4.69
X5.81Y-3.79
X5.81Y-3.89
X5.81Y-4.59
X5.81Y-4.69
X5.91Y-3.79
X5.91Y-3.89
X5.91Y-4.59
X5.91Y-4.69
X6.01Y-3.79
X6.01Y-3.89
X6.01Y-4.59
X6.01Y-4.69
X6.11Y-3.79
X6.11Y-3.89
X6.11Y-4.59
X6.11Y-4.69
X6.21Y-3.79
X6.21Y-3.89
X6.21Y-4.59
X6.21Y-4.69
X6.31Y-3.79
X6.31Y-3.89
X6.31Y-4.59
X6.31Y-4.69
X6.41Y-3.79
X6.41Y-3.89
X6.41Y-4.59
X6.41Y-4.69
X6.51Y-3.79
X6.51Y-3.89
X6.51Y-4.59
X6.51Y-4.69
X6.61Y-3.79
X6.61Y-3.89
X6.61Y-4.59
X6.61Y-4.69
T0
M30
