%TF.GenerationSoftware,KiCad,Pcbnew,(6.0.7)*%
%TF.CreationDate,2022-08-10T20:47:25+10:00*%
%TF.ProjectId,Voodoo2SLI,566f6f64-6f6f-4325-934c-492e6b696361,rev?*%
%TF.SameCoordinates,Original*%
%TF.FileFunction,Legend,Top*%
%TF.FilePolarity,Positive*%
%FSLAX46Y46*%
G04 Gerber Fmt 4.6, Leading zero omitted, Abs format (unit mm)*
G04 Created by KiCad (PCBNEW (6.0.7)) date 2022-08-10 20:47:25*
%MOMM*%
%LPD*%
G01*
G04 APERTURE LIST*
%ADD10C,0.120000*%
%ADD11C,0.200000*%
%ADD12C,0.100000*%
G04 APERTURE END LIST*
D10*
X148844000Y-121031000D02*
X146304000Y-121031000D01*
X146304000Y-121031000D02*
X146304000Y-120523000D01*
X148844000Y-100711000D02*
X146304000Y-100711000D01*
X148844000Y-100203000D02*
X148844000Y-100711000D01*
X146304000Y-100711000D02*
X146304000Y-100203000D01*
X148844000Y-120523000D02*
X148844000Y-121031000D01*
D11*
X155614285Y-111247619D02*
X155661904Y-111200000D01*
X155757142Y-111152380D01*
X155995238Y-111152380D01*
X156090476Y-111200000D01*
X156138095Y-111247619D01*
X156185714Y-111342857D01*
X156185714Y-111438095D01*
X156138095Y-111580952D01*
X155566666Y-112152380D01*
X156185714Y-112152380D01*
X147646285Y-111640571D02*
X148146285Y-113140571D01*
X148646285Y-111640571D01*
X149360571Y-113140571D02*
X149217714Y-113069142D01*
X149146285Y-112997714D01*
X149074857Y-112854857D01*
X149074857Y-112426285D01*
X149146285Y-112283428D01*
X149217714Y-112212000D01*
X149360571Y-112140571D01*
X149574857Y-112140571D01*
X149717714Y-112212000D01*
X149789142Y-112283428D01*
X149860571Y-112426285D01*
X149860571Y-112854857D01*
X149789142Y-112997714D01*
X149717714Y-113069142D01*
X149574857Y-113140571D01*
X149360571Y-113140571D01*
X150717714Y-113140571D02*
X150574857Y-113069142D01*
X150503428Y-112997714D01*
X150432000Y-112854857D01*
X150432000Y-112426285D01*
X150503428Y-112283428D01*
X150574857Y-112212000D01*
X150717714Y-112140571D01*
X150932000Y-112140571D01*
X151074857Y-112212000D01*
X151146285Y-112283428D01*
X151217714Y-112426285D01*
X151217714Y-112854857D01*
X151146285Y-112997714D01*
X151074857Y-113069142D01*
X150932000Y-113140571D01*
X150717714Y-113140571D01*
X152503428Y-113140571D02*
X152503428Y-111640571D01*
X152503428Y-113069142D02*
X152360571Y-113140571D01*
X152074857Y-113140571D01*
X151932000Y-113069142D01*
X151860571Y-112997714D01*
X151789142Y-112854857D01*
X151789142Y-112426285D01*
X151860571Y-112283428D01*
X151932000Y-112212000D01*
X152074857Y-112140571D01*
X152360571Y-112140571D01*
X152503428Y-112212000D01*
X153432000Y-113140571D02*
X153289142Y-113069142D01*
X153217714Y-112997714D01*
X153146285Y-112854857D01*
X153146285Y-112426285D01*
X153217714Y-112283428D01*
X153289142Y-112212000D01*
X153432000Y-112140571D01*
X153646285Y-112140571D01*
X153789142Y-112212000D01*
X153860571Y-112283428D01*
X153932000Y-112426285D01*
X153932000Y-112854857D01*
X153860571Y-112997714D01*
X153789142Y-113069142D01*
X153646285Y-113140571D01*
X153432000Y-113140571D01*
X154789142Y-113140571D02*
X154646285Y-113069142D01*
X154574857Y-112997714D01*
X154503428Y-112854857D01*
X154503428Y-112426285D01*
X154574857Y-112283428D01*
X154646285Y-112212000D01*
X154789142Y-112140571D01*
X155003428Y-112140571D01*
X155146285Y-112212000D01*
X155217714Y-112283428D01*
X155289142Y-112426285D01*
X155289142Y-112854857D01*
X155217714Y-112997714D01*
X155146285Y-113069142D01*
X155003428Y-113140571D01*
X154789142Y-113140571D01*
X157003428Y-113069142D02*
X157217714Y-113140571D01*
X157574857Y-113140571D01*
X157717714Y-113069142D01*
X157789142Y-112997714D01*
X157860571Y-112854857D01*
X157860571Y-112712000D01*
X157789142Y-112569142D01*
X157717714Y-112497714D01*
X157574857Y-112426285D01*
X157289142Y-112354857D01*
X157146285Y-112283428D01*
X157074857Y-112212000D01*
X157003428Y-112069142D01*
X157003428Y-111926285D01*
X157074857Y-111783428D01*
X157146285Y-111712000D01*
X157289142Y-111640571D01*
X157646285Y-111640571D01*
X157860571Y-111712000D01*
X159217714Y-113140571D02*
X158503428Y-113140571D01*
X158503428Y-111640571D01*
X159717714Y-113140571D02*
X159717714Y-111640571D01*
X162074857Y-112354857D02*
X162289142Y-112426285D01*
X162360571Y-112497714D01*
X162432000Y-112640571D01*
X162432000Y-112854857D01*
X162360571Y-112997714D01*
X162289142Y-113069142D01*
X162146285Y-113140571D01*
X161574857Y-113140571D01*
X161574857Y-111640571D01*
X162074857Y-111640571D01*
X162217714Y-111712000D01*
X162289142Y-111783428D01*
X162360571Y-111926285D01*
X162360571Y-112069142D01*
X162289142Y-112212000D01*
X162217714Y-112283428D01*
X162074857Y-112354857D01*
X161574857Y-112354857D01*
X163074857Y-113140571D02*
X163074857Y-112140571D01*
X163074857Y-112426285D02*
X163146285Y-112283428D01*
X163217714Y-112212000D01*
X163360571Y-112140571D01*
X163503428Y-112140571D01*
X164003428Y-113140571D02*
X164003428Y-112140571D01*
X164003428Y-111640571D02*
X163932000Y-111712000D01*
X164003428Y-111783428D01*
X164074857Y-111712000D01*
X164003428Y-111640571D01*
X164003428Y-111783428D01*
X165360571Y-113140571D02*
X165360571Y-111640571D01*
X165360571Y-113069142D02*
X165217714Y-113140571D01*
X164932000Y-113140571D01*
X164789142Y-113069142D01*
X164717714Y-112997714D01*
X164646285Y-112854857D01*
X164646285Y-112426285D01*
X164717714Y-112283428D01*
X164789142Y-112212000D01*
X164932000Y-112140571D01*
X165217714Y-112140571D01*
X165360571Y-112212000D01*
X166717714Y-112140571D02*
X166717714Y-113354857D01*
X166646285Y-113497714D01*
X166574857Y-113569142D01*
X166432000Y-113640571D01*
X166217714Y-113640571D01*
X166074857Y-113569142D01*
X166717714Y-113069142D02*
X166574857Y-113140571D01*
X166289142Y-113140571D01*
X166146285Y-113069142D01*
X166074857Y-112997714D01*
X166003428Y-112854857D01*
X166003428Y-112426285D01*
X166074857Y-112283428D01*
X166146285Y-112212000D01*
X166289142Y-112140571D01*
X166574857Y-112140571D01*
X166717714Y-112212000D01*
X168003428Y-113069142D02*
X167860571Y-113140571D01*
X167574857Y-113140571D01*
X167432000Y-113069142D01*
X167360571Y-112926285D01*
X167360571Y-112354857D01*
X167432000Y-112212000D01*
X167574857Y-112140571D01*
X167860571Y-112140571D01*
X168003428Y-112212000D01*
X168074857Y-112354857D01*
X168074857Y-112497714D01*
X167360571Y-112640571D01*
D10*
%TO.C,J1*%
X169224000Y-97536000D02*
X169224000Y-100136000D01*
X169224000Y-94936000D02*
X169224000Y-96266000D01*
X166624000Y-97536000D02*
X169224000Y-97536000D01*
X167894000Y-94936000D02*
X169224000Y-94936000D01*
X166624000Y-94936000D02*
X125924000Y-94936000D01*
X169224000Y-100136000D02*
X125924000Y-100136000D01*
X125924000Y-94936000D02*
X125924000Y-100136000D01*
X166624000Y-94936000D02*
X166624000Y-97536000D01*
%TO.C,J2*%
X166624000Y-115256000D02*
X166624000Y-117856000D01*
X167894000Y-115256000D02*
X169224000Y-115256000D01*
X169224000Y-117856000D02*
X169224000Y-120456000D01*
X166624000Y-117856000D02*
X169224000Y-117856000D01*
X166624000Y-115256000D02*
X125924000Y-115256000D01*
X125924000Y-115256000D02*
X125924000Y-120456000D01*
X169224000Y-120456000D02*
X125924000Y-120456000D01*
X169224000Y-115256000D02*
X169224000Y-116586000D01*
D11*
%TO.C,REF\u002A\u002A*%
X139968777Y-107155983D02*
X140358000Y-108164000D01*
X138454742Y-107155983D02*
X139518000Y-109864000D01*
X140828179Y-113187307D02*
X140428000Y-112174000D01*
X142334458Y-113187307D02*
X141258000Y-110454000D01*
G36*
X138174795Y-108282203D02*
G01*
X135343734Y-108282203D01*
X135343734Y-107155983D01*
X138174795Y-107155983D01*
X138174795Y-108282203D01*
G37*
D12*
X138174795Y-108282203D02*
X135343734Y-108282203D01*
X135343734Y-107155983D01*
X138174795Y-107155983D01*
X138174795Y-108282203D01*
G36*
X137408000Y-108284000D02*
G01*
X137408000Y-113184000D01*
X136008000Y-113184000D01*
X135990612Y-108282203D01*
X137408000Y-108284000D01*
G37*
X137408000Y-108284000D02*
X137408000Y-113184000D01*
X136008000Y-113184000D01*
X135990612Y-108282203D01*
X137408000Y-108284000D01*
G36*
X137408000Y-107084000D02*
G01*
X137406918Y-107155983D01*
X136008000Y-107084000D01*
X136008000Y-106384000D01*
X136108000Y-105584000D01*
X136308000Y-104984000D01*
X136808000Y-104684000D01*
X137408000Y-104584000D01*
X137408000Y-107084000D01*
G37*
X137408000Y-107084000D02*
X137406918Y-107155983D01*
X136008000Y-107084000D01*
X136008000Y-106384000D01*
X136108000Y-105584000D01*
X136308000Y-104984000D01*
X136808000Y-104684000D01*
X137408000Y-104584000D01*
X137408000Y-107084000D01*
G36*
X129708000Y-107184000D02*
G01*
X130208000Y-107484000D01*
X130608000Y-108084000D01*
X130708000Y-108684000D01*
X130708000Y-109284000D01*
X130408000Y-109684000D01*
X130108000Y-109984000D01*
X129703330Y-110086325D01*
X130308000Y-110384000D01*
X130708000Y-110784000D01*
X130808000Y-111384000D01*
X130808000Y-112084000D01*
X130408000Y-112784000D01*
X129708000Y-113184000D01*
X128908000Y-113284000D01*
X128208000Y-113084000D01*
X127708000Y-112484000D01*
X127441583Y-111634489D01*
X128408000Y-111684000D01*
X128608000Y-112084000D01*
X128908000Y-112284000D01*
X129208000Y-112284000D01*
X129508000Y-111984000D01*
X129608000Y-111584000D01*
X129508000Y-111084000D01*
X129408000Y-110784000D01*
X128608000Y-110584000D01*
X128435945Y-110658743D01*
X128508000Y-109684000D01*
X129008000Y-109584000D01*
X129408000Y-109284000D01*
X129501665Y-108848415D01*
X129408000Y-108484000D01*
X129208000Y-108184000D01*
X128908000Y-108084000D01*
X128708000Y-108284000D01*
X128508000Y-108584000D01*
X128508000Y-108684000D01*
X127508000Y-108584000D01*
X127708000Y-107884000D01*
X128408000Y-107284000D01*
X129108000Y-107084000D01*
X129708000Y-107184000D01*
G37*
X129708000Y-107184000D02*
X130208000Y-107484000D01*
X130608000Y-108084000D01*
X130708000Y-108684000D01*
X130708000Y-109284000D01*
X130408000Y-109684000D01*
X130108000Y-109984000D01*
X129703330Y-110086325D01*
X130308000Y-110384000D01*
X130708000Y-110784000D01*
X130808000Y-111384000D01*
X130808000Y-112084000D01*
X130408000Y-112784000D01*
X129708000Y-113184000D01*
X128908000Y-113284000D01*
X128208000Y-113084000D01*
X127708000Y-112484000D01*
X127441583Y-111634489D01*
X128408000Y-111684000D01*
X128608000Y-112084000D01*
X128908000Y-112284000D01*
X129208000Y-112284000D01*
X129508000Y-111984000D01*
X129608000Y-111584000D01*
X129508000Y-111084000D01*
X129408000Y-110784000D01*
X128608000Y-110584000D01*
X128435945Y-110658743D01*
X128508000Y-109684000D01*
X129008000Y-109584000D01*
X129408000Y-109284000D01*
X129501665Y-108848415D01*
X129408000Y-108484000D01*
X129208000Y-108184000D01*
X128908000Y-108084000D01*
X128708000Y-108284000D01*
X128508000Y-108584000D01*
X128508000Y-108684000D01*
X127508000Y-108584000D01*
X127708000Y-107884000D01*
X128408000Y-107284000D01*
X129108000Y-107084000D01*
X129708000Y-107184000D01*
G36*
X142318000Y-113184000D02*
G01*
X140828000Y-113194000D01*
X140378000Y-112164000D01*
X141218000Y-110424000D01*
X142318000Y-113184000D01*
G37*
X142318000Y-113184000D02*
X140828000Y-113194000D01*
X140378000Y-112164000D01*
X141218000Y-110424000D01*
X142318000Y-113184000D01*
G36*
X138108000Y-105684000D02*
G01*
X137708000Y-105784000D01*
X137308000Y-105984000D01*
X137308000Y-104584000D01*
X138108000Y-104584000D01*
X138108000Y-105684000D01*
G37*
X138108000Y-105684000D02*
X137708000Y-105784000D01*
X137308000Y-105984000D01*
X137308000Y-104584000D01*
X138108000Y-104584000D01*
X138108000Y-105684000D01*
G36*
X135019519Y-113185755D02*
G01*
X135008000Y-113184000D01*
X133708000Y-113184000D01*
X133603213Y-104633624D01*
X135019519Y-104633624D01*
X135019519Y-113185755D01*
G37*
X135019519Y-113185755D02*
X135008000Y-113184000D01*
X133708000Y-113184000D01*
X133603213Y-104633624D01*
X135019519Y-104633624D01*
X135019519Y-113185755D01*
G36*
X139968000Y-107184000D02*
G01*
X140388000Y-108214000D01*
X139558000Y-109904000D01*
X138518000Y-107174000D01*
X139968000Y-107184000D01*
G37*
X139968000Y-107184000D02*
X140388000Y-108214000D01*
X139558000Y-109904000D01*
X138518000Y-107174000D01*
X139968000Y-107184000D01*
G36*
X133208000Y-107184000D02*
G01*
X133608000Y-107584000D01*
X133608000Y-108184000D01*
X133308000Y-107984000D01*
X133108000Y-107984000D01*
X132808000Y-108284000D01*
X132708000Y-108884000D01*
X132708000Y-111884000D01*
X133008000Y-112284000D01*
X133308000Y-112284000D01*
X133708000Y-111884000D01*
X133708000Y-112584000D01*
X133308000Y-112984000D01*
X132808000Y-113284000D01*
X132308000Y-113284000D01*
X131808000Y-112884000D01*
X131308000Y-111884000D01*
X131208000Y-110584000D01*
X131308000Y-108984000D01*
X131508000Y-108084000D01*
X132008000Y-107384000D01*
X132608000Y-107084000D01*
X133208000Y-107184000D01*
G37*
X133208000Y-107184000D02*
X133608000Y-107584000D01*
X133608000Y-108184000D01*
X133308000Y-107984000D01*
X133108000Y-107984000D01*
X132808000Y-108284000D01*
X132708000Y-108884000D01*
X132708000Y-111884000D01*
X133008000Y-112284000D01*
X133308000Y-112284000D01*
X133708000Y-111884000D01*
X133708000Y-112584000D01*
X133308000Y-112984000D01*
X132808000Y-113284000D01*
X132308000Y-113284000D01*
X131808000Y-112884000D01*
X131308000Y-111884000D01*
X131208000Y-110584000D01*
X131308000Y-108984000D01*
X131508000Y-108084000D01*
X132008000Y-107384000D01*
X132608000Y-107084000D01*
X133208000Y-107184000D01*
D11*
X129560613Y-111496426D02*
X129547695Y-111705229D01*
X129497240Y-111921703D01*
X129388258Y-112118462D01*
X129223001Y-112244617D01*
X128999055Y-112289123D01*
X128435945Y-109633356D02*
X128435945Y-110658743D01*
X135990612Y-106482734D02*
X135990612Y-107155983D01*
X137406918Y-113187307D02*
X137406918Y-108282203D01*
X128718276Y-109633356D02*
X128435945Y-109633356D01*
X140828179Y-113187307D02*
X142334458Y-113187307D01*
X135019519Y-104633624D02*
X133603213Y-104633624D01*
X132588685Y-113280383D02*
X132807892Y-113261709D01*
X133003067Y-113206535D01*
X133188633Y-113102307D01*
X133346335Y-112968921D01*
X133515726Y-112785488D01*
X133665264Y-112597825D01*
X138174795Y-107155983D02*
X137406918Y-107155983D01*
X138174795Y-108282203D02*
X138174795Y-107155983D01*
X135990612Y-108282203D02*
X135990612Y-113187307D01*
X133158000Y-108034000D02*
X133354542Y-108077353D01*
X133518865Y-108205443D01*
X133603213Y-108339600D01*
X130869882Y-111496426D02*
X130857366Y-111255306D01*
X130820755Y-111040446D01*
X130736887Y-110792787D01*
X130616009Y-110586939D01*
X130461451Y-110420120D01*
X130276541Y-110289543D01*
X130064610Y-110192424D01*
X129828986Y-110125979D01*
X129703330Y-110103389D01*
X133603213Y-111803577D02*
X133521581Y-111987619D01*
X133401664Y-112153160D01*
X133223626Y-112280141D01*
X133088193Y-112307739D01*
X135990612Y-107155983D02*
X135343734Y-107155983D01*
X129703330Y-110086325D02*
X129910842Y-110021093D01*
X130107478Y-109927883D01*
X130288061Y-109806678D01*
X130447416Y-109657462D01*
X130580367Y-109480218D01*
X130681741Y-109274930D01*
X130746360Y-109041583D01*
X130769050Y-108780159D01*
X131186340Y-110399681D02*
X131191046Y-110683651D01*
X131205373Y-110962265D01*
X131229627Y-111233702D01*
X131264118Y-111496140D01*
X131309153Y-111747757D01*
X131365041Y-111986731D01*
X131432091Y-112211242D01*
X131510610Y-112419467D01*
X131600908Y-112609584D01*
X131759113Y-112856824D01*
X131945553Y-113053076D01*
X132161270Y-113192191D01*
X132407305Y-113268022D01*
X132588685Y-113280383D01*
X129048695Y-113308305D02*
X129297000Y-113293112D01*
X129543569Y-113247233D01*
X129783448Y-113170212D01*
X130011682Y-113061594D01*
X130223317Y-112920924D01*
X130413398Y-112747748D01*
X130576971Y-112541611D01*
X130709082Y-112302058D01*
X130804775Y-112028634D01*
X130845893Y-111827311D01*
X130867155Y-111610596D01*
X130869882Y-111496426D01*
X135343734Y-108282203D02*
X135990612Y-108282203D01*
X133682328Y-113185755D02*
X135019519Y-113185755D01*
X127441583Y-111634489D02*
X127475396Y-111851467D01*
X127521997Y-112051685D01*
X127614046Y-112321421D01*
X127730161Y-112555589D01*
X127867521Y-112755476D01*
X128023301Y-112922368D01*
X128194680Y-113057551D01*
X128378833Y-113162311D01*
X128572938Y-113237935D01*
X128774172Y-113285708D01*
X128979712Y-113306916D01*
X129048695Y-113308305D01*
X135019519Y-113185755D02*
X135019519Y-104633624D01*
X129168143Y-107053600D02*
X128959326Y-107065282D01*
X128753444Y-107101200D01*
X128552957Y-107162658D01*
X128360327Y-107250959D01*
X128178016Y-107367408D01*
X128008485Y-107513309D01*
X127854195Y-107689967D01*
X127717609Y-107898686D01*
X127601187Y-108140770D01*
X127507391Y-108417523D01*
X127458647Y-108621930D01*
X137406918Y-106318300D02*
X137443912Y-106086669D01*
X137567949Y-105892987D01*
X137758145Y-105775432D01*
X137957164Y-105730235D01*
X138174795Y-105731921D01*
X127458647Y-108621930D02*
X128539880Y-108727416D01*
X133088193Y-112307739D02*
X132889302Y-112187468D01*
X132798319Y-111961893D01*
X132750209Y-111703712D01*
X132725908Y-111467401D01*
X132709840Y-111196410D01*
X132700324Y-110892451D01*
X132696792Y-110672340D01*
X132694928Y-110438843D01*
X132694234Y-110192467D01*
X132694171Y-110064608D01*
X138174795Y-105731921D02*
X138174795Y-104517279D01*
X138174795Y-104517279D02*
X137458110Y-104523485D01*
X137458110Y-104523485D02*
X137192129Y-104537157D01*
X136953405Y-104575627D01*
X136741698Y-104642487D01*
X136556770Y-104741328D01*
X136398382Y-104875742D01*
X136266294Y-105049320D01*
X136160268Y-105265655D01*
X136080064Y-105528338D01*
X136040822Y-105730983D01*
X136012880Y-105956888D01*
X135996167Y-106207117D01*
X135990612Y-106482734D01*
X135343734Y-107155983D02*
X135343734Y-108282203D01*
X139968777Y-107155983D02*
X138454742Y-107155983D01*
X128435945Y-110658743D02*
X128753955Y-110658743D01*
X137406918Y-107155983D02*
X137406918Y-106318300D01*
X129042490Y-108130179D02*
X129241962Y-108185950D01*
X129385611Y-108338755D01*
X129464770Y-108534949D01*
X129497549Y-108737932D01*
X129501665Y-108848415D01*
X128466970Y-111608118D02*
X127441583Y-111634489D01*
X132694171Y-110064608D02*
X132694769Y-109853749D01*
X132696888Y-109649724D01*
X132703979Y-109358540D01*
X132717221Y-109087986D01*
X132738253Y-108841214D01*
X132768712Y-108621377D01*
X132826819Y-108375611D01*
X132908481Y-108190810D01*
X133083632Y-108044267D01*
X133158000Y-108034000D01*
X130769050Y-108780159D02*
X130749834Y-108486905D01*
X130694318Y-108217998D01*
X130605694Y-107974418D01*
X130487155Y-107757148D01*
X130341895Y-107567172D01*
X130173105Y-107405471D01*
X129983980Y-107273028D01*
X129777713Y-107170825D01*
X129557496Y-107099846D01*
X129326523Y-107061072D01*
X129168143Y-107053600D01*
X128539880Y-108727416D02*
X128587062Y-108505755D01*
X128679609Y-108309685D01*
X128840915Y-108171386D01*
X129042490Y-108130179D01*
X133603213Y-107585684D02*
X133458068Y-107407663D01*
X133304812Y-107265728D01*
X133109706Y-107146268D01*
X132890177Y-107077078D01*
X132677107Y-107058254D01*
X129501665Y-108848415D02*
X129486773Y-109056262D01*
X129428675Y-109264104D01*
X129306903Y-109444831D01*
X129135586Y-109559951D01*
X128922393Y-109619331D01*
X128718276Y-109633356D01*
X128753955Y-110658743D02*
X128990482Y-110671636D01*
X129201003Y-110725600D01*
X129373499Y-110843558D01*
X129495953Y-111048433D01*
X129543854Y-111244624D01*
X129560613Y-111496426D01*
X132677107Y-107058254D02*
X132477391Y-107076906D01*
X132208772Y-107171333D01*
X131975763Y-107338777D01*
X131839353Y-107487238D01*
X131717490Y-107662551D01*
X131609662Y-107862474D01*
X131515357Y-108084770D01*
X131434064Y-108327196D01*
X131365270Y-108587513D01*
X131308464Y-108863481D01*
X131263135Y-109152860D01*
X131228769Y-109453410D01*
X131204856Y-109762890D01*
X131190883Y-110079060D01*
X131186340Y-110399681D01*
X133603213Y-108339600D02*
X133603213Y-111803577D01*
X133682328Y-112597825D02*
X133682328Y-113185755D01*
X135990612Y-113187307D02*
X137406918Y-113187307D01*
X137406918Y-108282203D02*
X138174795Y-108282203D01*
X133603213Y-104633624D02*
X133603213Y-107585684D01*
X128999055Y-112289123D02*
X128801465Y-112255177D01*
X128622430Y-112121065D01*
X128529400Y-111943989D01*
X128480585Y-111734209D01*
X128466970Y-111608118D01*
%TD*%
M02*
