%TF.GenerationSoftware,KiCad,Pcbnew,(6.0.7)*%
%TF.CreationDate,2022-08-10T20:47:30+10:00*%
%TF.ProjectId,Voodoo2SLI,566f6f64-6f6f-4325-934c-492e6b696361,rev?*%
%TF.SameCoordinates,Original*%
%TF.FileFunction,Drillmap*%
%TF.FilePolarity,Positive*%
%FSLAX45Y45*%
G04 Gerber Fmt 4.5, Leading zero omitted, Abs format (unit mm)*
G04 Created by KiCad (PCBNEW (6.0.7)) date 2022-08-10 20:47:30*
%MOMM*%
%LPD*%
G01*
G04 APERTURE LIST*
%ADD10C,0.050000*%
%ADD11C,0.200000*%
%ADD12C,0.040000*%
%ADD13C,0.100000*%
G04 APERTURE END LIST*
D10*
X17043400Y-12166600D02*
X17043400Y-9372600D01*
X17043400Y-9372600D02*
X12471400Y-9372600D01*
X12471400Y-9372600D02*
X12471400Y-12166600D01*
X12471400Y-12166600D02*
X17043400Y-12166600D01*
D11*
D12*
X14610400Y-11765600D02*
X14650400Y-11805600D01*
X14650400Y-11765600D02*
X14610400Y-11805600D01*
D13*
X12775400Y-9626600D02*
G75*
G03*
X12775400Y-9626600I-50000J0D01*
G01*
X12775400Y-9880600D02*
G75*
G03*
X12775400Y-9880600I-50000J0D01*
G01*
X12775400Y-11658600D02*
G75*
G03*
X12775400Y-11658600I-50000J0D01*
G01*
X12775400Y-11912600D02*
G75*
G03*
X12775400Y-11912600I-50000J0D01*
G01*
X13029400Y-9626600D02*
G75*
G03*
X13029400Y-9626600I-50000J0D01*
G01*
X13029400Y-9880600D02*
G75*
G03*
X13029400Y-9880600I-50000J0D01*
G01*
X13029400Y-11658600D02*
G75*
G03*
X13029400Y-11658600I-50000J0D01*
G01*
X13029400Y-11912600D02*
G75*
G03*
X13029400Y-11912600I-50000J0D01*
G01*
X13283400Y-9626600D02*
G75*
G03*
X13283400Y-9626600I-50000J0D01*
G01*
X13283400Y-9880600D02*
G75*
G03*
X13283400Y-9880600I-50000J0D01*
G01*
X13283400Y-11658600D02*
G75*
G03*
X13283400Y-11658600I-50000J0D01*
G01*
X13283400Y-11912600D02*
G75*
G03*
X13283400Y-11912600I-50000J0D01*
G01*
X13537400Y-9626600D02*
G75*
G03*
X13537400Y-9626600I-50000J0D01*
G01*
X13537400Y-9880600D02*
G75*
G03*
X13537400Y-9880600I-50000J0D01*
G01*
X13537400Y-11658600D02*
G75*
G03*
X13537400Y-11658600I-50000J0D01*
G01*
X13537400Y-11912600D02*
G75*
G03*
X13537400Y-11912600I-50000J0D01*
G01*
X13791400Y-9626600D02*
G75*
G03*
X13791400Y-9626600I-50000J0D01*
G01*
X13791400Y-9880600D02*
G75*
G03*
X13791400Y-9880600I-50000J0D01*
G01*
X13791400Y-11658600D02*
G75*
G03*
X13791400Y-11658600I-50000J0D01*
G01*
X13791400Y-11912600D02*
G75*
G03*
X13791400Y-11912600I-50000J0D01*
G01*
X14045400Y-9626600D02*
G75*
G03*
X14045400Y-9626600I-50000J0D01*
G01*
X14045400Y-9880600D02*
G75*
G03*
X14045400Y-9880600I-50000J0D01*
G01*
X14045400Y-11658600D02*
G75*
G03*
X14045400Y-11658600I-50000J0D01*
G01*
X14045400Y-11912600D02*
G75*
G03*
X14045400Y-11912600I-50000J0D01*
G01*
X14299400Y-9626600D02*
G75*
G03*
X14299400Y-9626600I-50000J0D01*
G01*
X14299400Y-9880600D02*
G75*
G03*
X14299400Y-9880600I-50000J0D01*
G01*
X14299400Y-11658600D02*
G75*
G03*
X14299400Y-11658600I-50000J0D01*
G01*
X14299400Y-11912600D02*
G75*
G03*
X14299400Y-11912600I-50000J0D01*
G01*
X14553400Y-9626600D02*
G75*
G03*
X14553400Y-9626600I-50000J0D01*
G01*
X14553400Y-9880600D02*
G75*
G03*
X14553400Y-9880600I-50000J0D01*
G01*
X14553400Y-11658600D02*
G75*
G03*
X14553400Y-11658600I-50000J0D01*
G01*
X14553400Y-11912600D02*
G75*
G03*
X14553400Y-11912600I-50000J0D01*
G01*
X14807400Y-9626600D02*
G75*
G03*
X14807400Y-9626600I-50000J0D01*
G01*
X14807400Y-9880600D02*
G75*
G03*
X14807400Y-9880600I-50000J0D01*
G01*
X14807400Y-11658600D02*
G75*
G03*
X14807400Y-11658600I-50000J0D01*
G01*
X14807400Y-11912600D02*
G75*
G03*
X14807400Y-11912600I-50000J0D01*
G01*
X15061400Y-9626600D02*
G75*
G03*
X15061400Y-9626600I-50000J0D01*
G01*
X15061400Y-9880600D02*
G75*
G03*
X15061400Y-9880600I-50000J0D01*
G01*
X15061400Y-11658600D02*
G75*
G03*
X15061400Y-11658600I-50000J0D01*
G01*
X15061400Y-11912600D02*
G75*
G03*
X15061400Y-11912600I-50000J0D01*
G01*
X15315400Y-9626600D02*
G75*
G03*
X15315400Y-9626600I-50000J0D01*
G01*
X15315400Y-9880600D02*
G75*
G03*
X15315400Y-9880600I-50000J0D01*
G01*
X15315400Y-11658600D02*
G75*
G03*
X15315400Y-11658600I-50000J0D01*
G01*
X15315400Y-11912600D02*
G75*
G03*
X15315400Y-11912600I-50000J0D01*
G01*
X15569400Y-9626600D02*
G75*
G03*
X15569400Y-9626600I-50000J0D01*
G01*
X15569400Y-9880600D02*
G75*
G03*
X15569400Y-9880600I-50000J0D01*
G01*
X15569400Y-11658600D02*
G75*
G03*
X15569400Y-11658600I-50000J0D01*
G01*
X15569400Y-11912600D02*
G75*
G03*
X15569400Y-11912600I-50000J0D01*
G01*
X15823400Y-9626600D02*
G75*
G03*
X15823400Y-9626600I-50000J0D01*
G01*
X15823400Y-9880600D02*
G75*
G03*
X15823400Y-9880600I-50000J0D01*
G01*
X15823400Y-11658600D02*
G75*
G03*
X15823400Y-11658600I-50000J0D01*
G01*
X15823400Y-11912600D02*
G75*
G03*
X15823400Y-11912600I-50000J0D01*
G01*
X16077400Y-9626600D02*
G75*
G03*
X16077400Y-9626600I-50000J0D01*
G01*
X16077400Y-9880600D02*
G75*
G03*
X16077400Y-9880600I-50000J0D01*
G01*
X16077400Y-11658600D02*
G75*
G03*
X16077400Y-11658600I-50000J0D01*
G01*
X16077400Y-11912600D02*
G75*
G03*
X16077400Y-11912600I-50000J0D01*
G01*
X16331400Y-9626600D02*
G75*
G03*
X16331400Y-9626600I-50000J0D01*
G01*
X16331400Y-9880600D02*
G75*
G03*
X16331400Y-9880600I-50000J0D01*
G01*
X16331400Y-11658600D02*
G75*
G03*
X16331400Y-11658600I-50000J0D01*
G01*
X16331400Y-11912600D02*
G75*
G03*
X16331400Y-11912600I-50000J0D01*
G01*
X16585400Y-9626600D02*
G75*
G03*
X16585400Y-9626600I-50000J0D01*
G01*
X16585400Y-9880600D02*
G75*
G03*
X16585400Y-9880600I-50000J0D01*
G01*
X16585400Y-11658600D02*
G75*
G03*
X16585400Y-11658600I-50000J0D01*
G01*
X16585400Y-11912600D02*
G75*
G03*
X16585400Y-11912600I-50000J0D01*
G01*
X16839400Y-9626600D02*
G75*
G03*
X16839400Y-9626600I-50000J0D01*
G01*
X16839400Y-9880600D02*
G75*
G03*
X16839400Y-9880600I-50000J0D01*
G01*
X16839400Y-11658600D02*
G75*
G03*
X16839400Y-11658600I-50000J0D01*
G01*
X16839400Y-11912600D02*
G75*
G03*
X16839400Y-11912600I-50000J0D01*
G01*
D11*
X12726519Y-12479576D02*
X12726519Y-12279576D01*
X12774138Y-12279576D01*
X12802709Y-12289100D01*
X12821757Y-12308148D01*
X12831281Y-12327195D01*
X12840805Y-12365290D01*
X12840805Y-12393862D01*
X12831281Y-12431957D01*
X12821757Y-12451005D01*
X12802709Y-12470052D01*
X12774138Y-12479576D01*
X12726519Y-12479576D01*
X12926519Y-12479576D02*
X12926519Y-12346243D01*
X12926519Y-12384338D02*
X12936043Y-12365290D01*
X12945567Y-12355767D01*
X12964614Y-12346243D01*
X12983662Y-12346243D01*
X13050328Y-12479576D02*
X13050328Y-12346243D01*
X13050328Y-12279576D02*
X13040805Y-12289100D01*
X13050328Y-12298624D01*
X13059852Y-12289100D01*
X13050328Y-12279576D01*
X13050328Y-12298624D01*
X13174138Y-12479576D02*
X13155090Y-12470052D01*
X13145567Y-12451005D01*
X13145567Y-12279576D01*
X13278900Y-12479576D02*
X13259852Y-12470052D01*
X13250328Y-12451005D01*
X13250328Y-12279576D01*
X13507471Y-12479576D02*
X13507471Y-12279576D01*
X13574138Y-12422433D01*
X13640805Y-12279576D01*
X13640805Y-12479576D01*
X13821757Y-12479576D02*
X13821757Y-12374814D01*
X13812233Y-12355767D01*
X13793186Y-12346243D01*
X13755090Y-12346243D01*
X13736043Y-12355767D01*
X13821757Y-12470052D02*
X13802709Y-12479576D01*
X13755090Y-12479576D01*
X13736043Y-12470052D01*
X13726519Y-12451005D01*
X13726519Y-12431957D01*
X13736043Y-12412909D01*
X13755090Y-12403386D01*
X13802709Y-12403386D01*
X13821757Y-12393862D01*
X13916995Y-12346243D02*
X13916995Y-12546243D01*
X13916995Y-12355767D02*
X13936043Y-12346243D01*
X13974138Y-12346243D01*
X13993186Y-12355767D01*
X14002709Y-12365290D01*
X14012233Y-12384338D01*
X14012233Y-12441481D01*
X14002709Y-12460528D01*
X13993186Y-12470052D01*
X13974138Y-12479576D01*
X13936043Y-12479576D01*
X13916995Y-12470052D01*
X14097948Y-12460528D02*
X14107471Y-12470052D01*
X14097948Y-12479576D01*
X14088424Y-12470052D01*
X14097948Y-12460528D01*
X14097948Y-12479576D01*
X14097948Y-12355767D02*
X14107471Y-12365290D01*
X14097948Y-12374814D01*
X14088424Y-12365290D01*
X14097948Y-12355767D01*
X14097948Y-12374814D01*
D12*
X12428900Y-12789100D02*
X12468900Y-12829100D01*
X12468900Y-12789100D02*
X12428900Y-12829100D01*
D11*
X12764614Y-12699576D02*
X12783662Y-12699576D01*
X12802709Y-12709100D01*
X12812233Y-12718624D01*
X12821757Y-12737671D01*
X12831281Y-12775767D01*
X12831281Y-12823386D01*
X12821757Y-12861481D01*
X12812233Y-12880528D01*
X12802709Y-12890052D01*
X12783662Y-12899576D01*
X12764614Y-12899576D01*
X12745567Y-12890052D01*
X12736043Y-12880528D01*
X12726519Y-12861481D01*
X12716995Y-12823386D01*
X12716995Y-12775767D01*
X12726519Y-12737671D01*
X12736043Y-12718624D01*
X12745567Y-12709100D01*
X12764614Y-12699576D01*
X12916995Y-12880528D02*
X12926519Y-12890052D01*
X12916995Y-12899576D01*
X12907471Y-12890052D01*
X12916995Y-12880528D01*
X12916995Y-12899576D01*
X13097948Y-12766243D02*
X13097948Y-12899576D01*
X13050328Y-12690052D02*
X13002709Y-12832909D01*
X13126519Y-12832909D01*
X13240805Y-12699576D02*
X13259852Y-12699576D01*
X13278900Y-12709100D01*
X13288424Y-12718624D01*
X13297948Y-12737671D01*
X13307471Y-12775767D01*
X13307471Y-12823386D01*
X13297948Y-12861481D01*
X13288424Y-12880528D01*
X13278900Y-12890052D01*
X13259852Y-12899576D01*
X13240805Y-12899576D01*
X13221757Y-12890052D01*
X13212233Y-12880528D01*
X13202709Y-12861481D01*
X13193186Y-12823386D01*
X13193186Y-12775767D01*
X13202709Y-12737671D01*
X13212233Y-12718624D01*
X13221757Y-12709100D01*
X13240805Y-12699576D01*
X13431281Y-12699576D02*
X13450328Y-12699576D01*
X13469376Y-12709100D01*
X13478900Y-12718624D01*
X13488424Y-12737671D01*
X13497948Y-12775767D01*
X13497948Y-12823386D01*
X13488424Y-12861481D01*
X13478900Y-12880528D01*
X13469376Y-12890052D01*
X13450328Y-12899576D01*
X13431281Y-12899576D01*
X13412233Y-12890052D01*
X13402709Y-12880528D01*
X13393186Y-12861481D01*
X13383662Y-12823386D01*
X13383662Y-12775767D01*
X13393186Y-12737671D01*
X13402709Y-12718624D01*
X13412233Y-12709100D01*
X13431281Y-12699576D01*
X13583662Y-12899576D02*
X13583662Y-12766243D01*
X13583662Y-12785290D02*
X13593186Y-12775767D01*
X13612233Y-12766243D01*
X13640805Y-12766243D01*
X13659852Y-12775767D01*
X13669376Y-12794814D01*
X13669376Y-12899576D01*
X13669376Y-12794814D02*
X13678900Y-12775767D01*
X13697948Y-12766243D01*
X13726519Y-12766243D01*
X13745567Y-12775767D01*
X13755090Y-12794814D01*
X13755090Y-12899576D01*
X13850328Y-12899576D02*
X13850328Y-12766243D01*
X13850328Y-12785290D02*
X13859852Y-12775767D01*
X13878900Y-12766243D01*
X13907471Y-12766243D01*
X13926519Y-12775767D01*
X13936043Y-12794814D01*
X13936043Y-12899576D01*
X13936043Y-12794814D02*
X13945567Y-12775767D01*
X13964614Y-12766243D01*
X13993186Y-12766243D01*
X14012233Y-12775767D01*
X14021757Y-12794814D01*
X14021757Y-12899576D01*
X14412233Y-12690052D02*
X14240805Y-12947195D01*
X14669376Y-12699576D02*
X14688424Y-12699576D01*
X14707471Y-12709100D01*
X14716995Y-12718624D01*
X14726519Y-12737671D01*
X14736043Y-12775767D01*
X14736043Y-12823386D01*
X14726519Y-12861481D01*
X14716995Y-12880528D01*
X14707471Y-12890052D01*
X14688424Y-12899576D01*
X14669376Y-12899576D01*
X14650328Y-12890052D01*
X14640805Y-12880528D01*
X14631281Y-12861481D01*
X14621757Y-12823386D01*
X14621757Y-12775767D01*
X14631281Y-12737671D01*
X14640805Y-12718624D01*
X14650328Y-12709100D01*
X14669376Y-12699576D01*
X14821757Y-12880528D02*
X14831281Y-12890052D01*
X14821757Y-12899576D01*
X14812233Y-12890052D01*
X14821757Y-12880528D01*
X14821757Y-12899576D01*
X14955090Y-12699576D02*
X14974138Y-12699576D01*
X14993186Y-12709100D01*
X15002709Y-12718624D01*
X15012233Y-12737671D01*
X15021757Y-12775767D01*
X15021757Y-12823386D01*
X15012233Y-12861481D01*
X15002709Y-12880528D01*
X14993186Y-12890052D01*
X14974138Y-12899576D01*
X14955090Y-12899576D01*
X14936043Y-12890052D01*
X14926519Y-12880528D01*
X14916995Y-12861481D01*
X14907471Y-12823386D01*
X14907471Y-12775767D01*
X14916995Y-12737671D01*
X14926519Y-12718624D01*
X14936043Y-12709100D01*
X14955090Y-12699576D01*
X15212233Y-12899576D02*
X15097948Y-12899576D01*
X15155090Y-12899576D02*
X15155090Y-12699576D01*
X15136043Y-12728148D01*
X15116995Y-12747195D01*
X15097948Y-12756719D01*
X15393186Y-12699576D02*
X15297948Y-12699576D01*
X15288424Y-12794814D01*
X15297948Y-12785290D01*
X15316995Y-12775767D01*
X15364614Y-12775767D01*
X15383662Y-12785290D01*
X15393186Y-12794814D01*
X15402709Y-12813862D01*
X15402709Y-12861481D01*
X15393186Y-12880528D01*
X15383662Y-12890052D01*
X15364614Y-12899576D01*
X15316995Y-12899576D01*
X15297948Y-12890052D01*
X15288424Y-12880528D01*
X15469376Y-12699576D02*
X15602709Y-12699576D01*
X15516995Y-12899576D01*
X15669376Y-12699576D02*
X15669376Y-12737671D01*
X15745567Y-12699576D02*
X15745567Y-12737671D01*
X16040805Y-12975767D02*
X16031281Y-12966243D01*
X16012233Y-12937671D01*
X16002709Y-12918624D01*
X15993186Y-12890052D01*
X15983662Y-12842433D01*
X15983662Y-12804338D01*
X15993186Y-12756719D01*
X16002709Y-12728148D01*
X16012233Y-12709100D01*
X16031281Y-12680528D01*
X16040805Y-12671005D01*
X16221757Y-12899576D02*
X16107471Y-12899576D01*
X16164614Y-12899576D02*
X16164614Y-12699576D01*
X16145567Y-12728148D01*
X16126519Y-12747195D01*
X16107471Y-12756719D01*
X16459852Y-12899576D02*
X16459852Y-12699576D01*
X16545567Y-12899576D02*
X16545567Y-12794814D01*
X16536043Y-12775767D01*
X16516995Y-12766243D01*
X16488424Y-12766243D01*
X16469376Y-12775767D01*
X16459852Y-12785290D01*
X16669376Y-12899576D02*
X16650328Y-12890052D01*
X16640805Y-12880528D01*
X16631281Y-12861481D01*
X16631281Y-12804338D01*
X16640805Y-12785290D01*
X16650328Y-12775767D01*
X16669376Y-12766243D01*
X16697948Y-12766243D01*
X16716995Y-12775767D01*
X16726519Y-12785290D01*
X16736043Y-12804338D01*
X16736043Y-12861481D01*
X16726519Y-12880528D01*
X16716995Y-12890052D01*
X16697948Y-12899576D01*
X16669376Y-12899576D01*
X16850329Y-12899576D02*
X16831281Y-12890052D01*
X16821757Y-12871005D01*
X16821757Y-12699576D01*
X17002710Y-12890052D02*
X16983662Y-12899576D01*
X16945567Y-12899576D01*
X16926519Y-12890052D01*
X16916995Y-12871005D01*
X16916995Y-12794814D01*
X16926519Y-12775767D01*
X16945567Y-12766243D01*
X16983662Y-12766243D01*
X17002710Y-12775767D01*
X17012233Y-12794814D01*
X17012233Y-12813862D01*
X16916995Y-12832909D01*
X17078900Y-12975767D02*
X17088424Y-12966243D01*
X17107471Y-12937671D01*
X17116995Y-12918624D01*
X17126519Y-12890052D01*
X17136043Y-12842433D01*
X17136043Y-12804338D01*
X17126519Y-12756719D01*
X17116995Y-12728148D01*
X17107471Y-12709100D01*
X17088424Y-12680528D01*
X17078900Y-12671005D01*
D13*
X12468900Y-13073100D02*
G75*
G03*
X12468900Y-13073100I-50000J0D01*
G01*
D11*
X12831281Y-13163576D02*
X12716995Y-13163576D01*
X12774138Y-13163576D02*
X12774138Y-12963576D01*
X12755090Y-12992148D01*
X12736043Y-13011195D01*
X12716995Y-13020719D01*
X12916995Y-13144528D02*
X12926519Y-13154052D01*
X12916995Y-13163576D01*
X12907471Y-13154052D01*
X12916995Y-13144528D01*
X12916995Y-13163576D01*
X13050328Y-12963576D02*
X13069376Y-12963576D01*
X13088424Y-12973100D01*
X13097948Y-12982624D01*
X13107471Y-13001671D01*
X13116995Y-13039767D01*
X13116995Y-13087386D01*
X13107471Y-13125481D01*
X13097948Y-13144528D01*
X13088424Y-13154052D01*
X13069376Y-13163576D01*
X13050328Y-13163576D01*
X13031281Y-13154052D01*
X13021757Y-13144528D01*
X13012233Y-13125481D01*
X13002709Y-13087386D01*
X13002709Y-13039767D01*
X13012233Y-13001671D01*
X13021757Y-12982624D01*
X13031281Y-12973100D01*
X13050328Y-12963576D01*
X13240805Y-12963576D02*
X13259852Y-12963576D01*
X13278900Y-12973100D01*
X13288424Y-12982624D01*
X13297948Y-13001671D01*
X13307471Y-13039767D01*
X13307471Y-13087386D01*
X13297948Y-13125481D01*
X13288424Y-13144528D01*
X13278900Y-13154052D01*
X13259852Y-13163576D01*
X13240805Y-13163576D01*
X13221757Y-13154052D01*
X13212233Y-13144528D01*
X13202709Y-13125481D01*
X13193186Y-13087386D01*
X13193186Y-13039767D01*
X13202709Y-13001671D01*
X13212233Y-12982624D01*
X13221757Y-12973100D01*
X13240805Y-12963576D01*
X13431281Y-12963576D02*
X13450328Y-12963576D01*
X13469376Y-12973100D01*
X13478900Y-12982624D01*
X13488424Y-13001671D01*
X13497948Y-13039767D01*
X13497948Y-13087386D01*
X13488424Y-13125481D01*
X13478900Y-13144528D01*
X13469376Y-13154052D01*
X13450328Y-13163576D01*
X13431281Y-13163576D01*
X13412233Y-13154052D01*
X13402709Y-13144528D01*
X13393186Y-13125481D01*
X13383662Y-13087386D01*
X13383662Y-13039767D01*
X13393186Y-13001671D01*
X13402709Y-12982624D01*
X13412233Y-12973100D01*
X13431281Y-12963576D01*
X13583662Y-13163576D02*
X13583662Y-13030243D01*
X13583662Y-13049290D02*
X13593186Y-13039767D01*
X13612233Y-13030243D01*
X13640805Y-13030243D01*
X13659852Y-13039767D01*
X13669376Y-13058814D01*
X13669376Y-13163576D01*
X13669376Y-13058814D02*
X13678900Y-13039767D01*
X13697948Y-13030243D01*
X13726519Y-13030243D01*
X13745567Y-13039767D01*
X13755090Y-13058814D01*
X13755090Y-13163576D01*
X13850328Y-13163576D02*
X13850328Y-13030243D01*
X13850328Y-13049290D02*
X13859852Y-13039767D01*
X13878900Y-13030243D01*
X13907471Y-13030243D01*
X13926519Y-13039767D01*
X13936043Y-13058814D01*
X13936043Y-13163576D01*
X13936043Y-13058814D02*
X13945567Y-13039767D01*
X13964614Y-13030243D01*
X13993186Y-13030243D01*
X14012233Y-13039767D01*
X14021757Y-13058814D01*
X14021757Y-13163576D01*
X14412233Y-12954052D02*
X14240805Y-13211195D01*
X14669376Y-12963576D02*
X14688424Y-12963576D01*
X14707471Y-12973100D01*
X14716995Y-12982624D01*
X14726519Y-13001671D01*
X14736043Y-13039767D01*
X14736043Y-13087386D01*
X14726519Y-13125481D01*
X14716995Y-13144528D01*
X14707471Y-13154052D01*
X14688424Y-13163576D01*
X14669376Y-13163576D01*
X14650328Y-13154052D01*
X14640805Y-13144528D01*
X14631281Y-13125481D01*
X14621757Y-13087386D01*
X14621757Y-13039767D01*
X14631281Y-13001671D01*
X14640805Y-12982624D01*
X14650328Y-12973100D01*
X14669376Y-12963576D01*
X14821757Y-13144528D02*
X14831281Y-13154052D01*
X14821757Y-13163576D01*
X14812233Y-13154052D01*
X14821757Y-13144528D01*
X14821757Y-13163576D01*
X14955090Y-12963576D02*
X14974138Y-12963576D01*
X14993186Y-12973100D01*
X15002709Y-12982624D01*
X15012233Y-13001671D01*
X15021757Y-13039767D01*
X15021757Y-13087386D01*
X15012233Y-13125481D01*
X15002709Y-13144528D01*
X14993186Y-13154052D01*
X14974138Y-13163576D01*
X14955090Y-13163576D01*
X14936043Y-13154052D01*
X14926519Y-13144528D01*
X14916995Y-13125481D01*
X14907471Y-13087386D01*
X14907471Y-13039767D01*
X14916995Y-13001671D01*
X14926519Y-12982624D01*
X14936043Y-12973100D01*
X14955090Y-12963576D01*
X15088424Y-12963576D02*
X15212233Y-12963576D01*
X15145567Y-13039767D01*
X15174138Y-13039767D01*
X15193186Y-13049290D01*
X15202709Y-13058814D01*
X15212233Y-13077862D01*
X15212233Y-13125481D01*
X15202709Y-13144528D01*
X15193186Y-13154052D01*
X15174138Y-13163576D01*
X15116995Y-13163576D01*
X15097948Y-13154052D01*
X15088424Y-13144528D01*
X15307471Y-13163576D02*
X15345567Y-13163576D01*
X15364614Y-13154052D01*
X15374138Y-13144528D01*
X15393186Y-13115957D01*
X15402709Y-13077862D01*
X15402709Y-13001671D01*
X15393186Y-12982624D01*
X15383662Y-12973100D01*
X15364614Y-12963576D01*
X15326519Y-12963576D01*
X15307471Y-12973100D01*
X15297948Y-12982624D01*
X15288424Y-13001671D01*
X15288424Y-13049290D01*
X15297948Y-13068338D01*
X15307471Y-13077862D01*
X15326519Y-13087386D01*
X15364614Y-13087386D01*
X15383662Y-13077862D01*
X15393186Y-13068338D01*
X15402709Y-13049290D01*
X15574138Y-13030243D02*
X15574138Y-13163576D01*
X15526519Y-12954052D02*
X15478900Y-13096909D01*
X15602709Y-13096909D01*
X15669376Y-12963576D02*
X15669376Y-13001671D01*
X15745567Y-12963576D02*
X15745567Y-13001671D01*
X16040805Y-13239767D02*
X16031281Y-13230243D01*
X16012233Y-13201671D01*
X16002709Y-13182624D01*
X15993186Y-13154052D01*
X15983662Y-13106433D01*
X15983662Y-13068338D01*
X15993186Y-13020719D01*
X16002709Y-12992148D01*
X16012233Y-12973100D01*
X16031281Y-12944528D01*
X16040805Y-12935005D01*
X16202709Y-12963576D02*
X16164614Y-12963576D01*
X16145567Y-12973100D01*
X16136043Y-12982624D01*
X16116995Y-13011195D01*
X16107471Y-13049290D01*
X16107471Y-13125481D01*
X16116995Y-13144528D01*
X16126519Y-13154052D01*
X16145567Y-13163576D01*
X16183662Y-13163576D01*
X16202709Y-13154052D01*
X16212233Y-13144528D01*
X16221757Y-13125481D01*
X16221757Y-13077862D01*
X16212233Y-13058814D01*
X16202709Y-13049290D01*
X16183662Y-13039767D01*
X16145567Y-13039767D01*
X16126519Y-13049290D01*
X16116995Y-13058814D01*
X16107471Y-13077862D01*
X16336043Y-13049290D02*
X16316995Y-13039767D01*
X16307471Y-13030243D01*
X16297948Y-13011195D01*
X16297948Y-13001671D01*
X16307471Y-12982624D01*
X16316995Y-12973100D01*
X16336043Y-12963576D01*
X16374138Y-12963576D01*
X16393186Y-12973100D01*
X16402709Y-12982624D01*
X16412233Y-13001671D01*
X16412233Y-13011195D01*
X16402709Y-13030243D01*
X16393186Y-13039767D01*
X16374138Y-13049290D01*
X16336043Y-13049290D01*
X16316995Y-13058814D01*
X16307471Y-13068338D01*
X16297948Y-13087386D01*
X16297948Y-13125481D01*
X16307471Y-13144528D01*
X16316995Y-13154052D01*
X16336043Y-13163576D01*
X16374138Y-13163576D01*
X16393186Y-13154052D01*
X16402709Y-13144528D01*
X16412233Y-13125481D01*
X16412233Y-13087386D01*
X16402709Y-13068338D01*
X16393186Y-13058814D01*
X16374138Y-13049290D01*
X16650328Y-13163576D02*
X16650328Y-12963576D01*
X16736043Y-13163576D02*
X16736043Y-13058814D01*
X16726519Y-13039767D01*
X16707471Y-13030243D01*
X16678900Y-13030243D01*
X16659852Y-13039767D01*
X16650328Y-13049290D01*
X16859852Y-13163576D02*
X16840805Y-13154052D01*
X16831281Y-13144528D01*
X16821757Y-13125481D01*
X16821757Y-13068338D01*
X16831281Y-13049290D01*
X16840805Y-13039767D01*
X16859852Y-13030243D01*
X16888424Y-13030243D01*
X16907471Y-13039767D01*
X16916995Y-13049290D01*
X16926519Y-13068338D01*
X16926519Y-13125481D01*
X16916995Y-13144528D01*
X16907471Y-13154052D01*
X16888424Y-13163576D01*
X16859852Y-13163576D01*
X17040805Y-13163576D02*
X17021757Y-13154052D01*
X17012233Y-13135005D01*
X17012233Y-12963576D01*
X17193186Y-13154052D02*
X17174138Y-13163576D01*
X17136043Y-13163576D01*
X17116995Y-13154052D01*
X17107471Y-13135005D01*
X17107471Y-13058814D01*
X17116995Y-13039767D01*
X17136043Y-13030243D01*
X17174138Y-13030243D01*
X17193186Y-13039767D01*
X17202710Y-13058814D01*
X17202710Y-13077862D01*
X17107471Y-13096909D01*
X17278900Y-13154052D02*
X17297948Y-13163576D01*
X17336043Y-13163576D01*
X17355090Y-13154052D01*
X17364614Y-13135005D01*
X17364614Y-13125481D01*
X17355090Y-13106433D01*
X17336043Y-13096909D01*
X17307471Y-13096909D01*
X17288424Y-13087386D01*
X17278900Y-13068338D01*
X17278900Y-13058814D01*
X17288424Y-13039767D01*
X17307471Y-13030243D01*
X17336043Y-13030243D01*
X17355090Y-13039767D01*
X17431281Y-13239767D02*
X17440805Y-13230243D01*
X17459852Y-13201671D01*
X17469376Y-13182624D01*
X17478900Y-13154052D01*
X17488424Y-13106433D01*
X17488424Y-13068338D01*
X17478900Y-13020719D01*
X17469376Y-12992148D01*
X17459852Y-12973100D01*
X17440805Y-12944528D01*
X17431281Y-12935005D01*
M02*
